<?xml version="1.0" encoding="utf-8"?>
<!-- Generator: Adobe Illustrator 21.0.0, SVG Export Plug-In . SVG Version: 6.00 Build 0)  -->
<!DOCTYPE svg PUBLIC "-//W3C//DTD SVG 1.1//EN" "http://www.w3.org/Graphics/SVG/1.1/DTD/svg11.dtd">
<svg version="1.1" xmlns="http://www.w3.org/2000/svg" xmlns:xlink="http://www.w3.org/1999/xlink" x="0px" y="0px" width="1600px"
	 height="1000px" viewBox="0 0 1600 1000" enable-background="new 0 0 1600 1000" xml:space="preserve">
<g id="bg">
	<rect x="-2630" fill="#FFFFFF" width="1000" height="1600"/>
	<rect x="-1293" fill="#FFFFFF" width="1000" height="1000"/>
	<rect x="300" y="-300" transform="matrix(6.123234e-17 -1 1 6.123234e-17 300 1300)" fill="#FFFFFF" width="1000" height="1600"/>
	<rect x="-6348" y="-9519" fill="#FFFFFF" width="1000" height="1000"/>
	<rect x="-6348" y="-8043" fill="#FFFFFF" width="1000" height="1000"/>
	<rect x="-6348" y="-6635" fill="#FFFFFF" width="1000" height="1000"/>
	<rect x="-6348" y="-5198" fill="#FFFFFF" width="1000" height="1000"/>
	<rect x="-6348" y="-3809" fill="#FFFFFF" width="1000" height="1000"/>
	<g>
		<defs>
			<rect id="SVGID_1_" x="-2630" y="-2117" width="1000" height="1600"/>
		</defs>
		<clipPath id="SVGID_2_">
			<use xlink:href="#SVGID_1_"  overflow="visible"/>
		</clipPath>
		<rect x="-2630" y="-2117" clip-path="url(#SVGID_2_)" width="1000" height="1600"/>
		<g clip-path="url(#SVGID_2_)">
			<g>
				
					<rect x="-4020.6" y="-2036.3" transform="matrix(0.7071 -0.7071 0.7071 0.7071 644.5062 -2416.5244)" fill="#FFFFFF" width="2851.8" height="100"/>
			</g>
			<g>
				
					<rect x="-4020.6" y="-1753.3" transform="matrix(0.7071 -0.7071 0.7071 0.7071 444.395 -2333.6357)" fill="#FFFFFF" width="2851.8" height="100"/>
			</g>
			<g>
				
					<rect x="-4020.6" y="-1470.3" transform="matrix(0.7071 -0.7071 0.7071 0.7071 244.2837 -2250.7468)" fill="#FFFFFF" width="2851.8" height="100"/>
			</g>
			<g>
				
					<rect x="-4020.6" y="-1187.3" transform="matrix(0.7071 -0.7071 0.7071 0.7071 44.1725 -2167.8582)" fill="#FFFFFF" width="2851.8" height="100"/>
			</g>
			<g>
				
					<rect x="-4020.6" y="-904.3" transform="matrix(0.7071 -0.7071 0.7071 0.7071 -155.9387 -2084.9692)" fill="#FFFFFF" width="2851.8" height="100"/>
			</g>
			<g>
				
					<rect x="-4020.6" y="-621.3" transform="matrix(0.7071 -0.7071 0.7071 0.7071 -356.0499 -2002.0806)" fill="#FFFFFF" width="2851.8" height="100"/>
			</g>
			<g>
				
					<rect x="-4020.6" y="-338.3" transform="matrix(0.7071 -0.7071 0.7071 0.7071 -556.1611 -1919.1918)" fill="#FFFFFF" width="2851.8" height="100"/>
			</g>
			<g>
				
					<rect x="-4020.6" y="-55.3" transform="matrix(0.7071 -0.7071 0.7071 0.7071 -756.2723 -1836.303)" fill="#FFFFFF" width="2851.8" height="100"/>
			</g>
			<g>
				
					<rect x="-4020.6" y="227.7" transform="matrix(0.7071 -0.7071 0.7071 0.7071 -956.3836 -1753.4142)" fill="#FFFFFF" width="2851.8" height="100"/>
			</g>
		</g>
	</g>
	<g>
		<defs>
			
				<rect id="SVGID_3_" x="300" y="-2417" transform="matrix(6.123234e-17 -1 1 6.123234e-17 2417 -817)" width="1000" height="1600"/>
		</defs>
		<clipPath id="SVGID_4_">
			<use xlink:href="#SVGID_3_"  overflow="visible"/>
		</clipPath>
		
			<rect x="300" y="-2417" transform="matrix(6.123234e-17 -1 1 6.123234e-17 2417 -817)" clip-path="url(#SVGID_4_)" width="1000" height="1600"/>
		<g clip-path="url(#SVGID_4_)">
			<g>
				
					<rect x="80.7" y="-2578.1" transform="matrix(0.7071 -0.7071 0.7071 0.7071 853.0596 -245.032)" fill="#FFFFFF" width="100" height="2851.8"/>
			</g>
			<g>
				
					<rect x="363.7" y="-2578.1" transform="matrix(0.7071 -0.7071 0.7071 0.7071 935.9484 -44.9208)" fill="#FFFFFF" width="100" height="2851.8"/>
			</g>
			<g>
				
					<rect x="646.7" y="-2578.1" transform="matrix(0.7071 -0.7071 0.7071 0.7071 1018.8372 155.1904)" fill="#FFFFFF" width="100" height="2851.8"/>
			</g>
			<g>
				
					<rect x="929.7" y="-2578.1" transform="matrix(0.7071 -0.7071 0.7071 0.7071 1101.726 355.3017)" fill="#FFFFFF" width="100" height="2851.8"/>
			</g>
			<g>
				
					<rect x="1212.7" y="-2578.1" transform="matrix(0.7071 -0.7071 0.7071 0.7071 1184.6147 555.4129)" fill="#FFFFFF" width="100" height="2851.8"/>
			</g>
			<g>
				
					<rect x="1495.7" y="-2578.1" transform="matrix(0.7071 -0.7071 0.7071 0.7071 1267.5035 755.5241)" fill="#FFFFFF" width="100" height="2851.8"/>
			</g>
			<g>
				
					<rect x="1778.7" y="-2578.1" transform="matrix(0.7071 -0.7071 0.7071 0.7071 1350.3922 955.6353)" fill="#FFFFFF" width="100" height="2851.8"/>
			</g>
			<g>
				
					<rect x="2061.7" y="-2578.1" transform="matrix(0.7071 -0.7071 0.7071 0.7071 1433.281 1155.7466)" fill="#FFFFFF" width="100" height="2851.8"/>
			</g>
			<g>
				
					<rect x="2344.7" y="-2578.1" transform="matrix(0.7071 -0.7071 0.7071 0.7071 1516.1698 1355.8578)" fill="#FFFFFF" width="100" height="2851.8"/>
			</g>
		</g>
	</g>
	<g>
		<defs>
			<rect id="SVGID_5_" x="-1293" y="-2117" width="1000" height="1000"/>
		</defs>
		<clipPath id="SVGID_6_">
			<use xlink:href="#SVGID_5_"  overflow="visible"/>
		</clipPath>
		<rect x="-1293" y="-2117" clip-path="url(#SVGID_6_)" width="1000" height="1000"/>
		<g clip-path="url(#SVGID_6_)">
			<g>
				
					<rect x="-2683.6" y="-2036.3" transform="matrix(0.7071 -0.7071 0.7071 0.7071 1036.1044 -1471.1227)" fill="#FFFFFF" width="2851.8" height="100"/>
			</g>
			<g>
				
					<rect x="-2683.6" y="-1753.3" transform="matrix(0.7071 -0.7071 0.7071 0.7071 835.9932 -1388.2339)" fill="#FFFFFF" width="2851.8" height="100"/>
			</g>
			<g>
				
					<rect x="-2683.6" y="-1470.3" transform="matrix(0.7071 -0.7071 0.7071 0.7071 635.882 -1305.3451)" fill="#FFFFFF" width="2851.8" height="100"/>
			</g>
			<g>
				
					<rect x="-2683.6" y="-1187.3" transform="matrix(0.7071 -0.7071 0.7071 0.7071 435.7708 -1222.4564)" fill="#FFFFFF" width="2851.8" height="100"/>
			</g>
			<g>
				
					<rect x="-2683.6" y="-904.3" transform="matrix(0.7071 -0.7071 0.7071 0.7071 235.6595 -1139.5676)" fill="#FFFFFF" width="2851.8" height="100"/>
			</g>
			<g>
				
					<rect x="-2683.6" y="-621.3" transform="matrix(0.7071 -0.7071 0.7071 0.7071 35.5483 -1056.6788)" fill="#FFFFFF" width="2851.8" height="100"/>
			</g>
			<g>
				
					<rect x="-2683.6" y="-338.3" transform="matrix(0.7071 -0.7071 0.7071 0.7071 -164.5629 -973.79)" fill="#FFFFFF" width="2851.8" height="100"/>
			</g>
			<g>
				
					<rect x="-2683.6" y="-55.3" transform="matrix(0.7071 -0.7071 0.7071 0.7071 -364.6741 -890.9012)" fill="#FFFFFF" width="2851.8" height="100"/>
			</g>
			<g>
				
					<rect x="-2683.6" y="227.7" transform="matrix(0.7071 -0.7071 0.7071 0.7071 -564.7853 -808.0125)" fill="#FFFFFF" width="2851.8" height="100"/>
			</g>
		</g>
	</g>
</g>
<g id="obj">
	<circle cx="-5848" cy="-9019" r="250"/>
	<polygon points="-5848,-7326.5 -6098,-7326.5 -5973,-7543 -5848,-7759.5 -5723,-7543 -5598,-7326.5 	"/>
	<rect x="-6098" y="-6385" width="500" height="500"/>
	<polygon points="-5848,-4510.2 -6033.4,-4412.7 -5998,-4619.1 -6148,-4765.4 -5940.7,-4795.5 -5848,-4983.3 -5755.3,-4795.5 
		-5548,-4765.4 -5698,-4619.1 -5662.6,-4412.7 	"/>
	<polygon points="-5723,-3525.5 -5973,-3525.5 -6098,-3309 -5973,-3092.5 -5723,-3092.5 -5598,-3309 	"/>
	<g>
		<polygon points="-2630,1510.3 -1630,510.3 -1630,368.7 -2630,1368.7 		"/>
		<polygon points="-1870.7,1600 -1630,1359.3 -1630,1217.7 -2012.3,1600 		"/>
		<polygon points="-2630,1227.3 -1630,227.3 -1630,85.7 -2630,1085.7 		"/>
		<polygon points="-2436.7,1600 -1630,793.3 -1630,651.7 -2578.3,1600 		"/>
		<polygon points="-2153.7,1600 -1630,1076.3 -1630,934.7 -2295.3,1600 		"/>
		<polygon points="-2630,661.3 -1968.7,0 -2110.3,0 -2630,519.7 		"/>
		<polygon points="-2534.7,0 -2630,0 -2630,95.3 		"/>
		<polygon points="-2630,944.3 -1685.7,0 -1827.3,0 -2630,802.7 		"/>
		<polygon points="-1729.3,1600 -1630,1600 -1630,1500.7 		"/>
		<polygon points="-2630,378.3 -2251.7,0 -2393.3,0 -2630,236.7 		"/>
	</g>
	<g>
		<polygon points="227.3,0 85.7,0 1085.7,1000 1227.3,1000 		"/>
		<polygon points="236.7,1000 378.3,1000 0,621.7 0,763.3 		"/>
		<polygon points="0,55.7 0,197.3 802.7,1000 944.3,1000 		"/>
		<polygon points="0,338.7 0,480.3 519.7,1000 661.3,1000 		"/>
		<polygon points="1600,99.3 1600,0 1500.7,0 		"/>
		<polygon points="0,904.7 0,1000 95.3,1000 		"/>
		<polygon points="1359.3,0 1217.7,0 1600,382.3 1600,240.7 		"/>
		<polygon points="793.3,0 651.7,0 1600,948.3 1600,806.7 		"/>
		<polygon points="510.3,0 368.7,0 1368.7,1000 1510.3,1000 		"/>
		<polygon points="1076.3,0 934.7,0 1600,665.3 1600,523.7 		"/>
	</g>
	<g>
		<polygon points="-499.7,1000 -293,793.3 -293,651.7 -641.3,1000 		"/>
		<polygon points="-1065.7,1000 -293,227.3 -293,85.7 -1207.3,1000 		"/>
		<polygon points="-782.7,1000 -293,510.3 -293,368.7 -924.3,1000 		"/>
		<polygon points="-293,1000 -293,934.7 -358.3,1000 		"/>
		<polygon points="-1293,378.3 -914.7,0 -1056.3,0 -1293,236.7 		"/>
		<polygon points="-1197.7,0 -1293,0 -1293,95.3 		"/>
		<polygon points="-1293,661.3 -631.7,0 -773.3,0 -1293,519.7 		"/>
		<polygon points="-1293,944.3 -348.7,0 -490.3,0 -1293,802.7 		"/>
	</g>
</g>
</svg>
