<?xml version="1.0" encoding="utf-8"?>
<!-- Generator: Adobe Illustrator 21.0.0, SVG Export Plug-In . SVG Version: 6.00 Build 0)  -->
<!DOCTYPE svg PUBLIC "-//W3C//DTD SVG 1.1//EN" "http://www.w3.org/Graphics/SVG/1.1/DTD/svg11.dtd">
<svg version="1.1" id="Layer_1" xmlns="http://www.w3.org/2000/svg" xmlns:xlink="http://www.w3.org/1999/xlink" x="0px" y="0px"
	 width="1000px" height="1000px" viewBox="0 0 1000 1000" enable-background="new 0 0 1000 1000" xml:space="preserve">
<g>
	<rect fill="#FFFFFF" width="1000" height="1000"/>
	<g>
		<polygon points="793.3,1000 1000,793.3 1000,651.7 651.7,1000 		"/>
		<polygon points="227.3,1000 1000,227.3 1000,85.7 85.7,1000 		"/>
		<polygon points="510.3,1000 1000,510.3 1000,368.7 368.7,1000 		"/>
		<polygon points="1000,1000 1000,934.7 934.7,1000 		"/>
		<polygon points="0,378.3 378.3,0 236.7,0 0,236.7 		"/>
		<polygon points="95.3,0 0,0 0,95.3 		"/>
		<polygon points="0,661.3 661.3,0 519.7,0 0,519.7 		"/>
		<polygon points="0,944.3 944.3,0 802.7,0 0,802.7 		"/>
	</g>
</g>
</svg>
