<?xml version="1.0" encoding="utf-8"?>
<!-- Generator: Adobe Illustrator 21.0.0, SVG Export Plug-In . SVG Version: 6.00 Build 0)  -->
<!DOCTYPE svg PUBLIC "-//W3C//DTD SVG 1.1//EN" "http://www.w3.org/Graphics/SVG/1.1/DTD/svg11.dtd">
<svg version="1.1" id="Layer_1" xmlns="http://www.w3.org/2000/svg" xmlns:xlink="http://www.w3.org/1999/xlink" x="0px" y="0px"
	 width="1600px" height="1000px" viewBox="0 0 1600 1000" enable-background="new 0 0 1600 1000" xml:space="preserve">
<rect fill="#FFFFFF" width="1600" height="1000"/>
<g>
	<polygon points="227.3,0 85.7,0 1085.7,1000 1227.3,1000 	"/>
	<polygon points="236.7,1000 378.3,1000 0,621.7 0,763.3 	"/>
	<polygon points="0,55.7 0,197.3 802.7,1000 944.3,1000 	"/>
	<polygon points="0,338.7 0,480.3 519.7,1000 661.3,1000 	"/>
	<polygon points="1600,99.3 1600,0 1500.7,0 	"/>
	<polygon points="0,904.7 0,1000 95.3,1000 	"/>
	<polygon points="1359.3,0 1217.7,0 1600,382.3 1600,240.7 	"/>
	<polygon points="793.3,0 651.7,0 1600,948.3 1600,806.7 	"/>
	<polygon points="510.3,0 368.7,0 1368.7,1000 1510.3,1000 	"/>
	<polygon points="1076.3,0 934.7,0 1600,665.3 1600,523.7 	"/>
</g>
</svg>
