<?xml version="1.0" encoding="utf-8"?>
<!-- Generator: Adobe Illustrator 21.0.0, SVG Export Plug-In . SVG Version: 6.00 Build 0)  -->
<!DOCTYPE svg PUBLIC "-//W3C//DTD SVG 1.1//EN" "http://www.w3.org/Graphics/SVG/1.1/DTD/svg11.dtd">
<svg version="1.1" id="Layer_1" xmlns="http://www.w3.org/2000/svg" xmlns:xlink="http://www.w3.org/1999/xlink" x="0px" y="0px"
	 width="1000px" height="1600px" viewBox="0 0 1000 1600" enable-background="new 0 0 1000 1600" xml:space="preserve">
<g>
	<rect fill="#FFFFFF" width="1000" height="1600"/>
	<g>
		<polygon points="0,1510.3 1000,510.3 1000,368.7 0,1368.7 		"/>
		<polygon points="759.3,1600 1000,1359.3 1000,1217.7 617.7,1600 		"/>
		<polygon points="0,1227.3 1000,227.3 1000,85.7 0,1085.7 		"/>
		<polygon points="193.3,1600 1000,793.3 1000,651.7 51.7,1600 		"/>
		<polygon points="476.3,1600 1000,1076.3 1000,934.7 334.7,1600 		"/>
		<polygon points="0,661.3 661.3,0 519.7,0 0,519.7 		"/>
		<polygon points="95.3,0 0,0 0,95.3 		"/>
		<polygon points="0,944.3 944.3,0 802.7,0 0,802.7 		"/>
		<polygon points="900.7,1600 1000,1600 1000,1500.7 		"/>
		<polygon points="0,378.3 378.3,0 236.7,0 0,236.7 		"/>
	</g>
</g>
</svg>
