<?xml version="1.0" encoding="utf-8"?>
<!-- Generator: Adobe Illustrator 21.0.0, SVG Export Plug-In . SVG Version: 6.00 Build 0)  -->
<!DOCTYPE svg PUBLIC "-//W3C//DTD SVG 1.1//EN" "http://www.w3.org/Graphics/SVG/1.1/DTD/svg11.dtd">
<svg version="1.1" xmlns="http://www.w3.org/2000/svg" xmlns:xlink="http://www.w3.org/1999/xlink" x="0px" y="0px" width="1000px"
	 height="1000px" viewBox="0 0 1000 1000" enable-background="new 0 0 1000 1000" xml:space="preserve">
<g id="bg">
	<rect x="-1337" fill="#FFFFFF" width="1000" height="1600"/>
	<rect fill="#FFFFFF" width="1000" height="1000"/>
	
		<rect x="1593" y="-300" transform="matrix(6.123234e-17 -1 1 6.123234e-17 1593 2593)" fill="#FFFFFF" width="1000" height="1600"/>
	<rect x="-5055" y="-9519" fill="#FFFFFF" width="1000" height="1000"/>
	<rect x="-5055" y="-8043" fill="#FFFFFF" width="1000" height="1000"/>
	<rect x="-5055" y="-6635" fill="#FFFFFF" width="1000" height="1000"/>
	<rect x="-5055" y="-5198" fill="#FFFFFF" width="1000" height="1000"/>
	<rect x="-5055" y="-3809" fill="#FFFFFF" width="1000" height="1000"/>
	<g>
		<defs>
			<rect id="SVGID_1_" x="-1337" y="-2117" width="1000" height="1600"/>
		</defs>
		<clipPath id="SVGID_2_">
			<use xlink:href="#SVGID_1_"  overflow="visible"/>
		</clipPath>
		<rect x="-1337" y="-2117" clip-path="url(#SVGID_2_)" width="1000" height="1600"/>
		<g clip-path="url(#SVGID_2_)">
			<g>
				
					<rect x="-2727.6" y="-2036.3" transform="matrix(0.7071 -0.7071 0.7071 0.7071 1023.2171 -1502.2354)" fill="#FFFFFF" width="2851.8" height="100"/>
			</g>
			<g>
				
					<rect x="-2727.6" y="-1753.3" transform="matrix(0.7071 -0.7071 0.7071 0.7071 823.1059 -1419.3467)" fill="#FFFFFF" width="2851.8" height="100"/>
			</g>
			<g>
				
					<rect x="-2727.6" y="-1470.3" transform="matrix(0.7071 -0.7071 0.7071 0.7071 622.9946 -1336.4579)" fill="#FFFFFF" width="2851.8" height="100"/>
			</g>
			<g>
				
					<rect x="-2727.6" y="-1187.3" transform="matrix(0.7071 -0.7071 0.7071 0.7071 422.8835 -1253.5691)" fill="#FFFFFF" width="2851.8" height="100"/>
			</g>
			<g>
				
					<rect x="-2727.6" y="-904.3" transform="matrix(0.7071 -0.7071 0.7071 0.7071 222.7722 -1170.6803)" fill="#FFFFFF" width="2851.8" height="100"/>
			</g>
			<g>
				
					<rect x="-2727.6" y="-621.3" transform="matrix(0.7071 -0.7071 0.7071 0.7071 22.661 -1087.7915)" fill="#FFFFFF" width="2851.8" height="100"/>
			</g>
			<g>
				
					<rect x="-2727.6" y="-338.3" transform="matrix(0.7071 -0.7071 0.7071 0.7071 -177.4502 -1004.9027)" fill="#FFFFFF" width="2851.8" height="100"/>
			</g>
			<g>
				
					<rect x="-2727.6" y="-55.3" transform="matrix(0.7071 -0.7071 0.7071 0.7071 -377.5614 -922.0139)" fill="#FFFFFF" width="2851.8" height="100"/>
			</g>
			<g>
				
					<rect x="-2727.6" y="227.7" transform="matrix(0.7071 -0.7071 0.7071 0.7071 -577.6727 -839.1252)" fill="#FFFFFF" width="2851.8" height="100"/>
			</g>
		</g>
	</g>
	<g>
		<defs>
			
				<rect id="SVGID_3_" x="1593" y="-2417" transform="matrix(6.123234e-17 -1 1 6.123234e-17 3710 476)" width="1000" height="1600"/>
		</defs>
		<clipPath id="SVGID_4_">
			<use xlink:href="#SVGID_3_"  overflow="visible"/>
		</clipPath>
		
			<rect x="1593" y="-2417" transform="matrix(6.123234e-17 -1 1 6.123234e-17 3710 476)" clip-path="url(#SVGID_4_)" width="1000" height="1600"/>
		<g clip-path="url(#SVGID_4_)">
			<g>
				
					<rect x="1373.7" y="-2578.1" transform="matrix(0.7071 -0.7071 0.7071 0.7071 1231.7705 669.2571)" fill="#FFFFFF" width="100" height="2851.8"/>
			</g>
			<g>
				
					<rect x="1656.7" y="-2578.1" transform="matrix(0.7071 -0.7071 0.7071 0.7071 1314.6593 869.3683)" fill="#FFFFFF" width="100" height="2851.8"/>
			</g>
			<g>
				
					<rect x="1939.7" y="-2578.1" transform="matrix(0.7071 -0.7071 0.7071 0.7071 1397.5481 1069.4795)" fill="#FFFFFF" width="100" height="2851.8"/>
			</g>
			<g>
				
					<rect x="2222.7" y="-2578.1" transform="matrix(0.7071 -0.7071 0.7071 0.7071 1480.4369 1269.5907)" fill="#FFFFFF" width="100" height="2851.8"/>
			</g>
			<g>
				
					<rect x="2505.7" y="-2578.1" transform="matrix(0.7071 -0.7071 0.7071 0.7071 1563.3257 1469.7019)" fill="#FFFFFF" width="100" height="2851.8"/>
			</g>
			<g>
				
					<rect x="2788.7" y="-2578.1" transform="matrix(0.7071 -0.7071 0.7071 0.7071 1646.2144 1669.8131)" fill="#FFFFFF" width="100" height="2851.8"/>
			</g>
			<g>
				
					<rect x="3071.7" y="-2578.1" transform="matrix(0.7071 -0.7071 0.7071 0.7071 1729.1031 1869.9244)" fill="#FFFFFF" width="100" height="2851.8"/>
			</g>
			<g>
				
					<rect x="3354.7" y="-2578.1" transform="matrix(0.7071 -0.7071 0.7071 0.7071 1811.9919 2070.0356)" fill="#FFFFFF" width="100" height="2851.8"/>
			</g>
			<g>
				
					<rect x="3637.7" y="-2578.1" transform="matrix(0.7071 -0.7071 0.7071 0.7071 1894.8807 2270.1467)" fill="#FFFFFF" width="100" height="2851.8"/>
			</g>
		</g>
	</g>
	<g>
		<defs>
			<rect id="SVGID_5_" y="-2117" width="1000" height="1000"/>
		</defs>
		<clipPath id="SVGID_6_">
			<use xlink:href="#SVGID_5_"  overflow="visible"/>
		</clipPath>
		<rect y="-2117" clip-path="url(#SVGID_6_)" width="1000" height="1000"/>
		<g clip-path="url(#SVGID_6_)">
			<g>
				
					<rect x="-1390.6" y="-2036.3" transform="matrix(0.7071 -0.7071 0.7071 0.7071 1414.8153 -556.8336)" fill="#FFFFFF" width="2851.8" height="100"/>
			</g>
			<g>
				
					<rect x="-1390.6" y="-1753.3" transform="matrix(0.7071 -0.7071 0.7071 0.7071 1214.7041 -473.9449)" fill="#FFFFFF" width="2851.8" height="100"/>
			</g>
			<g>
				
					<rect x="-1390.6" y="-1470.3" transform="matrix(0.7071 -0.7071 0.7071 0.7071 1014.5929 -391.0561)" fill="#FFFFFF" width="2851.8" height="100"/>
			</g>
			<g>
				
					<rect x="-1390.6" y="-1187.3" transform="matrix(0.7071 -0.7071 0.7071 0.7071 814.4817 -308.1673)" fill="#FFFFFF" width="2851.8" height="100"/>
			</g>
			<g>
				
					<rect x="-1390.6" y="-904.3" transform="matrix(0.7071 -0.7071 0.7071 0.7071 614.3705 -225.2785)" fill="#FFFFFF" width="2851.8" height="100"/>
			</g>
			<g>
				
					<rect x="-1390.6" y="-621.3" transform="matrix(0.7071 -0.7071 0.7071 0.7071 414.2592 -142.3897)" fill="#FFFFFF" width="2851.8" height="100"/>
			</g>
			<g>
				
					<rect x="-1390.6" y="-338.3" transform="matrix(0.7071 -0.7071 0.7071 0.7071 214.148 -59.501)" fill="#FFFFFF" width="2851.8" height="100"/>
			</g>
			<g>
				
					<rect x="-1390.6" y="-55.3" transform="matrix(0.7071 -0.7071 0.7071 0.7071 14.0368 23.3878)" fill="#FFFFFF" width="2851.8" height="100"/>
			</g>
			<g>
				
					<rect x="-1390.6" y="227.7" transform="matrix(0.7071 -0.7071 0.7071 0.7071 -186.0744 106.2766)" fill="#FFFFFF" width="2851.8" height="100"/>
			</g>
		</g>
	</g>
</g>
<g id="obj">
	<circle cx="-4555" cy="-9019" r="250"/>
	<polygon points="-4555,-7326.5 -4805,-7326.5 -4680,-7543 -4555,-7759.5 -4430,-7543 -4305,-7326.5 	"/>
	<rect x="-4805" y="-6385" width="500" height="500"/>
	<polygon points="-4555,-4510.2 -4740.4,-4412.7 -4705,-4619.1 -4855,-4765.4 -4647.7,-4795.5 -4555,-4983.3 -4462.3,-4795.5 
		-4255,-4765.4 -4405,-4619.1 -4369.6,-4412.7 	"/>
	<polygon points="-4430,-3525.5 -4680,-3525.5 -4805,-3309 -4680,-3092.5 -4430,-3092.5 -4305,-3309 	"/>
	<g>
		<polygon points="-1337,1510.3 -337,510.3 -337,368.7 -1337,1368.7 		"/>
		<polygon points="-577.7,1600 -337,1359.3 -337,1217.7 -719.3,1600 		"/>
		<polygon points="-1337,1227.3 -337,227.3 -337,85.7 -1337,1085.7 		"/>
		<polygon points="-1143.7,1600 -337,793.3 -337,651.7 -1285.3,1600 		"/>
		<polygon points="-860.7,1600 -337,1076.3 -337,934.7 -1002.3,1600 		"/>
		<polygon points="-1337,661.3 -675.7,0 -817.3,0 -1337,519.7 		"/>
		<polygon points="-1241.7,0 -1337,0 -1337,95.3 		"/>
		<polygon points="-1337,944.3 -392.7,0 -534.3,0 -1337,802.7 		"/>
		<polygon points="-436.3,1600 -337,1600 -337,1500.7 		"/>
		<polygon points="-1337,378.3 -958.7,0 -1100.3,0 -1337,236.7 		"/>
	</g>
	<g>
		<polygon points="1520.3,0 1378.7,0 2378.7,1000 2520.3,1000 		"/>
		<polygon points="1529.7,1000 1671.3,1000 1293,621.7 1293,763.3 		"/>
		<polygon points="1293,55.7 1293,197.3 2095.7,1000 2237.3,1000 		"/>
		<polygon points="1293,338.7 1293,480.3 1812.7,1000 1954.3,1000 		"/>
		<polygon points="2893,99.3 2893,0 2793.7,0 		"/>
		<polygon points="1293,904.7 1293,1000 1388.3,1000 		"/>
		<polygon points="2652.3,0 2510.7,0 2893,382.3 2893,240.7 		"/>
		<polygon points="2086.3,0 1944.7,0 2893,948.3 2893,806.7 		"/>
		<polygon points="1803.3,0 1661.7,0 2661.7,1000 2803.3,1000 		"/>
		<polygon points="2369.3,0 2227.7,0 2893,665.3 2893,523.7 		"/>
	</g>
	<g>
		<polygon points="793.3,1000 1000,793.3 1000,651.7 651.7,1000 		"/>
		<polygon points="227.3,1000 1000,227.3 1000,85.7 85.7,1000 		"/>
		<polygon points="510.3,1000 1000,510.3 1000,368.7 368.7,1000 		"/>
		<polygon points="1000,1000 1000,934.7 934.7,1000 		"/>
		<polygon points="0,378.3 378.3,0 236.7,0 0,236.7 		"/>
		<polygon points="95.3,0 0,0 0,95.3 		"/>
		<polygon points="0,661.3 661.3,0 519.7,0 0,519.7 		"/>
		<polygon points="0,944.3 944.3,0 802.7,0 0,802.7 		"/>
	</g>
</g>
</svg>
